<?xml version="1.0" encoding="utf-8"?>
<!-- Generator: Adobe Illustrator 23.0.1, SVG Export Plug-In . SVG Version: 6.00 Build 0)  -->
<svg version="1.1" id="Layer_1" xmlns="http://www.w3.org/2000/svg" xmlns:xlink="http://www.w3.org/1999/xlink" x="0px" y="0px"
	 viewBox="0 0 512 512" style="enable-background:new 0 0 512 512;" xml:space="preserve">
<style type="text/css">
	.st0{fill:#FFE49C;}
	.st1{fill:#FFC72D;}
	.st2{fill:#F59D00;}
	.st3{fill:#CF7004;}
</style>
<path class="st0" d="M494,448.7H18c-9.9,0-18-8-18-18V163.9c0-9.9,8-18,18-18h393.8c9.9,0,18,8,18,18c0,8.8,2.5,17.3,7.3,24.7
	c8.4,13,22.7,20.8,38.2,20.8c4.6,0,9.1-0.7,13.4-2c11.5-3.6,23.3,5.1,23.3,17.2v206.1C512,440.6,503.9,448.7,494,448.7z"/>
<g>
	<path class="st1" d="M488.7,207.4c-4.3,1.3-8.8,2-13.4,2c-15.5,0-29.8-7.8-38.2-20.8c-4.8-7.3-7.3-15.9-7.3-24.7c0-9.9-8-18-18-18
		H256v302.7h238c9.9,0,18-8,18-18V224.6C512,212.5,500.3,203.8,488.7,207.4z"/>
	<path class="st1" d="M494,448.7H18c-16.1,0-24.1-19.7-12.5-30.9l185.3-178.1c5.4-5.2,13.4-6.5,20.2-3.3l45,21.5l45-21.5
		c6.8-3.2,14.8-1.9,20.2,3.3l185.3,178.1C518.1,428.9,510.2,448.7,494,448.7z"/>
</g>
<path class="st2" d="M248.2,294l-238-113.8C-7,171.9-1.1,146,18,146h393.8c9.9,0,18,8,18,18c0,8.8,2.5,17.3,7.3,24.7
	c5.9,9.1,2.5,21.3-7.3,26l-166,79.4C258.8,296.3,253.2,296.3,248.2,294z"/>
<path class="st3" d="M437.1,188.6c-4.8-7.3-7.3-15.9-7.3-24.7c0-9.9-8-18-18-18H256v149.7c2.6,0,5.3-0.6,7.8-1.8l166-79.4
	C439.5,209.9,443,197.7,437.1,188.6z"/>
<path class="st1" d="M494,146H256v302.7h238c9.9,0,18-8,18-18V163.9C512,154,503.9,146,494,146z"/>
<path class="st2" d="M506.5,417.7L321.2,239.6c-5.4-5.2-13.4-6.5-20.2-3.3l-45,21.5v190.8h238C510.2,448.7,518.1,428.9,506.5,417.7z
	"/>
<path class="st3" d="M494.1,146H256v149.7c2.7,0,5.3-0.6,7.8-1.8l238-113.8C519,171.9,513.1,146,494.1,146z"/>
</svg>
