<svg id="phone-call-svgrepo-com" xmlns="http://www.w3.org/2000/svg" width="53.895" height="53.894" viewBox="0 0 53.895 53.894">
  <defs>
    <style>
      .cls-1 {
        fill: #feb802;
      }

      .cls-2 {
        fill: #feb902;
      }

      .cls-3 {
        fill: #faa00a;
      }
    </style>
  </defs>
  <g id="phone-call-svgrepo-com-2" data-name="phone-call-svgrepo-com" transform="translate(53.895 10.754) rotate(104)">
    <path id="Path_18" data-name="Path 18" class="cls-1" d="M34.509,48.216H30.971A17.265,17.265,0,0,1,48.217,30.97v3.538A13.724,13.724,0,0,0,34.509,48.216Z" transform="translate(-28.23 -28.231)"/>
    <path id="Path_19" data-name="Path 19" class="cls-1" d="M104.509,112.025h-3.538a11.068,11.068,0,0,1,11.055-11.055v3.538A7.526,7.526,0,0,0,104.509,112.025Z" transform="translate(-92.039 -92.04)"/>
    <path id="Path_20" data-name="Path 20" class="cls-2" d="M263.414,16.151l-3.906-3.906L271.753,0,273,1.149c.53.488,5.193,4.882,5.559,8.86.3,3.309-1.591,7.352-3.235,10.161a59.938,59.938,0,0,1-9.29,11.732l-9.186-9.186Z" transform="translate(-234.132)"/>
    <path id="Path_21" data-name="Path 21" class="cls-3" d="M12.247,259.506l3.906,3.906,6.564-6.564,9.186,9.186c-7.628,7.628-15.933,12.558-21.158,12.558-.251,0-.5-.011-.735-.033-3.978-.367-8.373-5.029-8.861-5.559L0,271.751Z" transform="translate(0 -234.132)"/>
  </g>
</svg>
